#!OML:ASF X:\für Bonn\!DataBase\2005_08_10_Bjorn_Final\c3d\bjorn.ASF
:FULLY-SPECIFIED
:DEGREES
78
root -2.0331 18.1747 13.0064 -185.678 21.2659 178.931
lowerback -8.03121 3.72258 -0.0477935
upperback 7.61193 5.9051 -3.26962
thorax 13.2008 3.18511 -2.36783
lowerneck -4.89724 1.71508 5.06689
upperneck 15.7665 2.79435 -2.40494
head 5.66098 1.73304 -1.39126
rclavicle -1.51076e-014 0
rhumerus 46.5113 19.3589 -77.2558
rradius 91.3582
rwrist 36.6794
rhand -50.4397 12.9009
rfingers 7.12502
rthumb -23.011 -15.7455
lclavicle -1.51076e-014 0
lhumerus 41.4768 -25.3548 79.1853
lradius 81.0483
lwrist 47.6026
lhand -49.8765 -7.92268
lfingers 7.12502
lthumb -22.4705 20.79
rfemur 550.511 -170.588 -529.315
rtibia 28.6861
rfoot -30.5177 6.07896
rtoes -25.8211
lfemur 338.727 6.11214 347.691
ltibia 46.8256
lfoot -13.4523 2.80414
ltoes -24.7376
79
root -2.01093 18.1901 13.061 -185.663 21.0449 178.901
lowerback -8.23291 3.62782 -0.0276348
upperback 7.60338 5.76579 -3.23966
thorax 13.3059 3.11402 -2.36176
lowerneck -4.91166 1.75552 5.05528
upperneck 15.6842 2.83887 -2.39888
head 5.63938 1.75021 -1.38481
rclavicle 6.76862e-014 -2.70347e-014
rhumerus 46.5211 19.5183 -77.1671
rradius 91.3924
rwrist 36.7534
rhand -50.3477 12.7199
rfingers 7.12502
rthumb -22.9228 -15.9374
lclavicle 6.76862e-014 -2.70347e-014
lhumerus 41.3179 -24.9911 79.5322
lradius 80.6693
lwrist 48.0477
lhand -49.936 -7.84962
lfingers 7.12502
lthumb -22.5276 20.8562
rfemur 550.348 -170.487 -529.167
rtibia 28.7413
rfoot -30.402 6.0315
rtoes -25.752
lfemur 338.691 6.44053 347.779
ltibia 46.4461
lfoot -13.1211 2.2842
ltoes -24.6148
80
root -1.98981 18.2071 13.1142 -185.663 20.8417 178.871
lowerback -8.40661 3.53988 -0.00615612
upperback 7.60043 5.63673 -3.21162
thorax 13.4015 3.04901 -2.35868
lowerneck -4.89947 1.79347 5.09023
upperneck 15.52 2.87632 -2.4412
head 5.58866 1.76053 -1.4024
rclavicle 1.02374e-014 -7.87187e-014
rhumerus 46.5138 19.6723 -77.0854
rradius 91.4633
rwrist 36.8927
rhand -50.2239 12.4046
rfingers 7.12502
rthumb -22.804 -16.2674
lclavicle 1.02374e-014 -7.87187e-014
lhumerus 41.1182 -24.6541 79.9267
lradius 80.3044
lwrist 48.3886
lhand -49.9937 -7.46946
lfingers 7.12502
lthumb -22.583 21.2296
rfemur 550.192 -170.376 -529.033
rtibia 28.8038
rfoot -30.2812 5.99064
rtoes -25.5923
lfemur 338.689 6.79085 347.861
ltibia 46.0361
lfoot -12.8047 1.73819
ltoes -24.5381
81
root -1.96872 18.224 13.1675 -185.66 20.6399 178.806
lowerback -8.55643 3.4429 -0.0407581
upperback 7.57644 5.49943 -3.18015
thorax 13.4507 2.97402 -2.32508
lowerneck -4.84514 1.85182 5.06275
upperneck 15.2788 2.93856 -2.44253
head 5.50637 1.78024 -1.39602
rclavicle -7.69297e-014 1.98785e-014
rhumerus 46.4713 19.859 -77.0132
rradius 91.5371
rwrist 37.0702
rhand -50.0909 12.1096
rfingers 7.12502
rthumb -22.6763 -16.5781
lclavicle -7.69297e-014 1.98785e-014
lhumerus 40.8431 -24.3056 80.3504
lradius 79.9618
lwrist 48.8113
lhand -49.9899 -7.01994
lfingers 7.12502
lthumb -22.5794 21.6796
rfemur 550.017 -170.283 -528.925
rtibia 28.8658
rfoot -30.1681 5.90656
rtoes -25.6276
lfemur 338.694 7.11902 347.903
ltibia 45.596
lfoot -12.4849 1.18986
ltoes -24.3553
82
root -1.94891 18.2418 13.221 -185.654 20.4513 178.737
lowerback -8.68796 3.35788 -0.0553506
upperback 7.56335 5.3829 -3.17723
thorax 13.5086 2.91436 -2.33069
lowerneck -5.01651 1.91129 5.1562
upperneck 15.232 2.99901 -2.53153
head 5.52633 1.80157 -1.43401
rclavicle 1.36167e-014 6.36111e-015
rhumerus 46.4673 20.0147 -76.9487
rradius 91.6059
rwrist 37.0775
rhand -49.9452 11.9528
rfingers 7.12502
rthumb -22.5365 -16.7519
lclavicle 1.36167e-014 6.36111e-015
lhumerus 40.6192 -23.9964 80.6947
lradius 79.6241
lwrist 49.2838
lhand -49.9757 -6.58104
lfingers 7.12502
lthumb -22.5658 22.1201
rfemur 549.851 -170.142 -528.846
rtibia 28.9037
rfoot -30.057 5.8754
rtoes -25.6481
lfemur 338.705 7.41603 347.929
ltibia 45.1382
lfoot -12.1522 0.67989
ltoes -24.0732
83
root -1.92944 18.2607 13.2749 -185.633 20.2574 178.683
lowerback -8.79646 3.28397 -0.0546245
upperback 7.53156 5.27607 -3.17377
thorax 13.5321 2.86017 -2.34449
lowerneck -5.14534 1.96621 5.1992
upperneck 15.1582 3.04966 -2.54763
head 5.52859 1.8205 -1.44194
rclavicle 3.50855e-014 3.81667e-014
rhumerus 46.4403 20.1713 -76.8583
rradius 91.619
rwrist 36.9657
rhand -49.8668 12.0216
rfingers 7.12502
rthumb -22.4613 -16.6923
lclavicle 3.50855e-014 3.81667e-014
lhumerus 40.3395 -23.7408 81.0831
lradius 79.317
lwrist 49.7412
lhand -49.8914 -6.25619
lfingers 7.12502
lthumb -22.4849 22.4548
rfemur 549.672 -170.05 -528.724
rtibia 28.9252
rfoot -29.9767 5.75572
rtoes -25.6728
lfemur 338.711 7.65221 347.959
ltibia 44.6653
lfoot -11.8236 0.227013
ltoes -23.8632
84
root -1.91078 18.2783 13.329 -185.641 20.0622 178.591
lowerback -8.8628 3.19616 -0.11569
upperback 7.50425 5.1576 -3.15571
thorax 13.5261 2.7943 -2.31267
lowerneck -5.35257 2.03282 5.1762
upperneck 15.1659 3.12126 -2.54934
head 5.56924 1.84798 -1.43183
rclavicle 1.73937e-014 4.13472e-014
rhumerus 46.4432 20.3524 -76.7126
rradius 91.6226
rwrist 36.8438
rhand -49.8284 12.0683
rfingers 7.12502
rthumb -22.4244 -16.65
lclavicle 1.73937e-014 4.13472e-014
lhumerus 40.0305 -23.4509 81.5031
lradius 79.0153
lwrist 50.1492
lhand -49.7827 -6.084
lfingers 7.12502
lthumb -22.3805 22.6396
rfemur 549.52 -169.919 -528.662
rtibia 28.94
rfoot -29.9093 5.64291
rtoes -25.8765
lfemur 338.744 7.78133 347.947
ltibia 44.1881
lfoot -11.5052 -0.17131
ltoes -23.261
85
root -1.89322 18.2965 13.3834 -185.635 19.8809 178.503
lowerback -8.93153 3.11246 -0.178713
upperback 7.47627 5.04443 -3.13404
thorax 13.5209 2.7304 -2.27466
lowerneck -5.46657 2.0936 5.16654
upperneck 15.0514 3.18387 -2.5713
head 5.55593 1.86821 -1.4324
rclavicle 3.28989e-014 3.18055e-015
rhumerus 46.4718 20.5294 -76.5903
rradius 91.5646
rwrist 36.7869
rhand -49.8771 12.1204
rfingers 7.12502
rthumb -22.4711 -16.5922
lclavicle 3.28989e-014 3.18055e-015
lhumerus 39.7334 -23.1922 81.8909
lradius 78.7243
lwrist 50.443
lhand -49.5914 -5.9463
lfingers 7.12502
lthumb -22.1968 22.7992
rfemur 549.345 -169.817 -528.592
rtibia 28.966
rfoot -29.8341 5.58032
rtoes -25.8392
lfemur 338.765 7.86572 347.934
ltibia 43.7155
lfoot -11.2025 -0.536513
ltoes -22.6312
86
root -1.8775 18.3128 13.4361 -185.632 19.6974 178.41
lowerback -8.97528 3.03306 -0.225748
upperback 7.43088 4.93333 -3.12031
thorax 13.4825 2.66926 -2.25571
lowerneck -5.49128 2.13374 5.19889
upperneck 14.8362 3.22701 -2.68841
head 5.49718 1.8736 -1.47248
rclavicle -7.85199e-015 -1.59028e-015
rhumerus 46.4783 20.6783 -76.4372
rradius 91.5122
rwrist 36.7169
rhand -49.9281 12.1116
rfingers 7.12502
rthumb -22.5201 -16.5952
lclavicle -7.85199e-015 -1.59028e-015
lhumerus 39.3911 -22.9968 82.2455
lradius 78.4347
lwrist 50.5955
lhand -49.4271 -5.93417
lfingers 7.12502
lthumb -22.0391 22.83
rfemur 549.172 -169.706 -528.535
rtibia 29.0008
rfoot -29.7882 5.47946
rtoes -25.9126
lfemur 338.792 7.85482 347.901
ltibia 43.2519
lfoot -10.9189 -0.801742
ltoes -22.1244
87
root -1.86252 18.327 13.4884 -185.646 19.5387 178.298
lowerback -9.02036 2.96343 -0.2822
upperback 7.40442 4.84215 -3.11613
thorax 13.4688 2.61854 -2.23717
lowerneck -5.48676 2.15868 5.21334
upperneck 14.5241 3.24462 -2.80689
head 5.40207 1.86288 -1.51249
rclavicle -1.0635e-014 1.74931e-014
rhumerus 46.5066 20.8111 -76.3207
rradius 91.4539
rwrist 36.67
rhand -49.9435 12.1949
rfingers 7.12502
rthumb -22.5349 -16.51
lclavicle -1.0635e-014 1.74931e-014
lhumerus 39.1016 -22.8438 82.5437
lradius 78.1661
lwrist 50.5944
lhand -49.1792 -5.80769
lfingers 7.12502
lthumb -21.8011 22.9844
rfemur 548.998 -169.623 -528.498
rtibia 29.044
rfoot -29.7569 5.37052
rtoes -26.018
lfemur 338.827 7.84336 347.851
ltibia 42.8029
lfoot -10.6456 -1.08867
ltoes -21.4616
88
root -1.84876 18.3432 13.5398 -185.643 19.4174 178.209
lowerback -9.05998 2.90743 -0.299946
upperback 7.36396 4.75992 -3.10534
thorax 13.4386 2.57438 -2.23184
lowerneck -5.44517 2.16998 5.22082
upperneck 14.2331 3.25216 -2.93604
head 5.30698 1.84861 -1.55553
rclavicle 6.06293e-014 -9.93923e-014
rhumerus 46.4801 20.9511 -76.2293
rradius 91.4282
rwrist 36.6195
rhand -49.9633 12.2349
rfingers 7.12502
rthumb -22.5538 -16.4677
lclavicle 6.06293e-014 -9.93923e-014
lhumerus 38.745 -22.7511 82.8498
lradius 77.9611
lwrist 50.4125
lhand -49.0458 -5.5772
lfingers 7.12502
lthumb -21.673 23.2297
rfemur 548.81 -169.573 -528.433
rtibia 29.0921
rfoot -29.7184 5.25368
rtoes -26.1806
lfemur 338.859 7.80142 347.819
ltibia 42.3607
lfoot -10.3972 -1.33144
ltoes -20.7351
89
root -1.83709 18.3577 13.5896 -185.637 19.3354 178.133
lowerback -9.12502 2.86066 -0.299163
upperback 7.34824 4.68681 -3.07033
thorax 13.453 2.5348 -2.20656
lowerneck -5.4915 2.17899 5.21925
upperneck 14.0112 3.26454 -3.12908
head 5.24933 1.83263 -1.61536
rclavicle -5.76476e-015 1.74931e-014
rhumerus 46.499 21.086 -76.0805
rradius 91.4451
rwrist 36.5859
rhand -49.9238 12.2266
rfingers 7.12502
rthumb -22.5159 -16.4806
lclavicle -5.76476e-015 1.74931e-014
lhumerus 38.3779 -22.6506 83.2146
lradius 77.8439
lwrist 50.2119
lhand -48.9101 -5.3689
lfingers 7.12502
lthumb -21.5427 23.453
rfemur 548.62 -169.548 -528.37
rtibia 29.1319
rfoot -29.6591 5.19838
rtoes -26.101
lfemur 338.902 7.74823 347.793
ltibia 41.9325
lfoot -10.1893 -1.53906
ltoes -20.1375
90
root -1.82597 18.3731 13.6378 -185.634 19.2909 178.05
lowerback -9.1941 2.8312 -0.26824
upperback 7.3347 4.63906 -3.06755
thorax 13.48 2.51301 -2.22799
lowerneck -5.51453 2.19423 5.2744
upperneck 13.7656 3.28019 -3.32742
head 5.18173 1.82114 -1.68615
rclavicle -8.64713e-015 -3.57812e-014
rhumerus 46.5012 21.1974 -76.0068
rradius 91.493
rwrist 36.5731
rhand -49.81 12.1919
rfingers 7.12502
rthumb -22.4067 -16.5285
lclavicle -8.64713e-015 -3.57812e-014
lhumerus 38.0378 -22.5879 83.4799
lradius 77.7699
lwrist 49.957
lhand -48.7345 -5.1101
lfingers 7.12502
lthumb -21.374 23.731
rfemur 548.426 -169.534 -528.321
rtibia 29.1667
rfoot -29.6003 5.09001
rtoes -26.2784
lfemur 338.968 7.63257 347.76
ltibia 41.5086
lfoot -10.009 -1.7059
ltoes -19.3886
91
root -1.81544 18.3884 13.685 -185.622 19.2656 177.979
lowerback -9.30818 2.80111 -0.229232
upperback 7.35893 4.59181 -3.04704
thorax 13.5784 2.49177 -2.23147
lowerneck -5.58409 2.22406 5.26041
upperneck 13.477 3.31113 -3.50252
head 5.10815 1.81287 -1.73693
rclavicle -1.78906e-014 -3.97569e-015
rhumerus 46.5801 21.3088 -75.8683
rradius 91.5665
rwrist 36.5538
rhand -49.7135 12.0719
rfingers 7.12502
rthumb -22.3141 -16.6596
lclavicle -1.78906e-014 -3.97569e-015
lhumerus 37.7679 -22.5044 83.7093
lradius 77.7653
lwrist 49.8034
lhand -48.5847 -5.00675
lfingers 7.12502
lthumb -21.2302 23.8506
rfemur 548.227 -169.477 -528.29
rtibia 29.2034
rfoot -29.5271 5.12591
rtoes -26.2326
lfemur 339.026 7.50003 347.732
ltibia 41.0977
lfoot -9.86108 -1.82199
ltoes -18.9791
92
root -1.80604 18.4024 13.731 -185.625 19.2408 177.892
lowerback -9.39723 2.76675 -0.205939
upperback 7.38657 4.54213 -3.0299
thorax 13.6643 2.4688 -2.23162
lowerneck -5.67628 2.25953 5.27667
upperneck 13.1932 3.35228 -3.72946
head 5.04181 1.80818 -1.80778
rclavicle -2.97183e-014 7.95139e-015
rhumerus 46.7052 21.4068 -75.7398
rradius 91.6107
rwrist 36.5941
rhand -49.6061 11.9446
rfingers 7.12502
rthumb -22.211 -16.7993
lclavicle -2.97183e-014 7.95139e-015
lhumerus 37.5195 -22.4103 83.9192
lradius 77.803
lwrist 49.6794
lhand -48.3258 -5.07819
lfingers 7.12502
lthumb -20.9815 23.8069
rfemur 548.033 -169.427 -528.276
rtibia 29.2475
rfoot -29.4689 5.09463
rtoes -26.3553
lfemur 339.1 7.33802 347.681
ltibia 40.6963
lfoot -9.75194 -1.95889
ltoes -18.6785
